<svg xmlns="http://www.w3.org/2000/svg" viewBox="0 0 260 46" fill="none" aria-hidden="true">
  <defs>
    <linearGradient id="gold" x1="0" y1="1" x2="1" y2="0">
      <stop offset="0"    stop-color="#9a7b28"/>
      <stop offset="0.55" stop-color="#d8b658"/>
      <stop offset="1"    stop-color="#f3dc8a"/>
    </linearGradient>
  </defs>
  <path d="M130.00,23.00 C96.00,16.00 64.00,22.00 30.00,20.00" stroke="url(#gold)" stroke-width="1.6" stroke-linecap="round"/>
  <path d="M117.84,21.01 Q112.50,14.78 113.41,6.63 Q118.75,12.86 117.84,21.01 Z" fill="url(#gold)"/>
  <path d="M97.84,19.59 Q97.54,26.90 92.02,31.70 Q92.33,24.39 97.84,19.59 Z" fill="url(#gold)"/>
  <path d="M78.02,19.67 Q73.19,15.43 72.89,9.00 Q77.72,13.25 78.02,19.67 Z" fill="url(#gold)"/>
  <path d="M58.18,20.26 Q58.16,25.81 54.21,29.70 Q54.23,24.15 58.18,20.26 Z" fill="url(#gold)"/>
  <path d="M40.14,20.38 Q36.77,17.04 36.68,12.29 Q40.06,15.63 40.14,20.38 Z" fill="url(#gold)"/>
  <g transform="translate(260,0) scale(-1,1)">
    <path d="M130.00,23.00 C96.00,16.00 64.00,22.00 30.00,20.00" stroke="url(#gold)" stroke-width="1.6" stroke-linecap="round"/>
    <path d="M117.84,21.01 Q112.50,14.78 113.41,6.63 Q118.75,12.86 117.84,21.01 Z" fill="url(#gold)"/>
    <path d="M97.84,19.59 Q97.54,26.90 92.02,31.70 Q92.33,24.39 97.84,19.59 Z" fill="url(#gold)"/>
    <path d="M78.02,19.67 Q73.19,15.43 72.89,9.00 Q77.72,13.25 78.02,19.67 Z" fill="url(#gold)"/>
    <path d="M58.18,20.26 Q58.16,25.81 54.21,29.70 Q54.23,24.15 58.18,20.26 Z" fill="url(#gold)"/>
    <path d="M40.14,20.38 Q36.77,17.04 36.68,12.29 Q40.06,15.63 40.14,20.38 Z" fill="url(#gold)"/>
  </g>
  <path d="M130,12 L136,23 L130,34 L124,23 Z" fill="url(#gold)"/>
  <circle cx="130" cy="23" r="1.6" fill="#fffdf6"/>
</svg>
